<svg width="310" height="91" viewBox="0 0 310 91" fill="none" xmlns="http://www.w3.org/2000/svg">
<path d="M44.7993 82.2817H41.8713C13.5508 73.7795 13.0352 29.5188 40.1549 21.0166H46.3318C18.1952 29.5188 17.6795 73.7795 44.7993 82.2817Z" fill="#01549C"/>
<path d="M51.153 84.9888H48.2358C19.9154 76.4826 19.3961 32.2219 46.5194 23.7197H52.6999C24.5453 32.2219 24.0333 76.4826 51.153 84.9888Z" fill="#01549C"/>
<path d="M57.5027 87.4908H54.5855C26.265 78.9886 25.753 34.7279 52.8691 26.2217H59.0496C30.8986 34.935 30.3829 79.0008 57.5027 87.4908Z" fill="#01549C"/>
<path d="M8.58196 85.7606C8.06993 85.1841 7.55429 84.7943 7.20813 84.2137C12.5304 60.8308 9.44016 38.4062 0 21.7877C1.68755 19.8185 3.46524 17.9508 5.32226 16.1846C14.4199 36.8714 15.7937 61.992 8.58196 85.7606Z" fill="#0EA94E"/>
<path d="M10.6445 88.0837C10.1289 87.5031 9.61326 87.1133 9.2707 86.5368C17.1676 62.3783 16.4788 36.4739 7.38123 14.0572C9.09762 12.1246 10.8176 10.3746 12.7179 8.4541C21.4585 34.7402 20.5967 63.3446 10.6445 88.0837Z" fill="#0EA94E"/>
<path d="M12.7212 90.2069C12.1912 89.6303 11.6683 89.2406 11.3149 88.6762C21.9559 63.9412 23.5028 34.1755 14.7513 6.1477C16.4497 4.17442 18.231 2.29859 20.0952 0.52832C28.3238 32.6124 25.4067 64.8913 12.7212 90.2069Z" fill="#0EA94E"/>
<path d="M83.7646 29.3271L79.6467 50.3917H79.8197L98.7001 29.3271H111.916L87.8789 53.6806L103.153 82.8657H91.8345L78.6154 55.6132L73.4806 82.8657H64.026L74.1549 29.3271H83.7646Z" fill="#01549C"/>
<path d="M115.518 43.4369H124.615L117.065 82.8659H107.967L115.518 43.4369ZM118.781 26.4326H127.879L125.989 36.2909H116.892L118.781 26.4326Z" fill="#01549C"/>
<path d="M129.938 43.4384H136.461L138.008 35.3179L147.79 31.6475L145.562 43.4344H153.801L152.427 50.9702H144.188L140.914 68.1735C140.687 69.4444 140.568 70.7396 140.564 72.0388C140.564 74.3613 141.938 75.9083 143.997 75.9083C145.526 75.9245 147.044 75.5956 148.461 74.9379L146.914 82.8472C145.367 83.2411 143.651 83.8136 141.938 83.8136C135.757 83.8136 131.467 81.1095 131.467 73.5696C131.467 70.4757 131.982 67.5766 132.671 64.2919L135.245 50.958H128.74L129.938 43.4384Z" fill="#01549C"/>
<path d="M157.573 43.4365H166.67L169.249 73.0073H169.418L182.295 43.4365H192.42L194.299 73.0073H194.472L207.86 43.4365H217.127L197.742 82.8656H187.444L185.385 52.7142H185.212L172.523 82.8656H162.21L157.573 43.4365Z" fill="#01549C"/>
<path d="M235.157 76.8737C231.894 81.3197 228.807 83.8289 223.654 83.8289C217.304 83.8289 212.84 79.7728 212.84 72.6227C212.84 59.6705 225.717 58.5133 234.295 58.5133H237.559C237.836 57.4455 237.955 56.337 237.908 55.2286C237.908 51.1724 234.133 50.0112 230.884 50.0112C226.889 50.0639 222.951 51.1155 219.36 53.0888L220.734 44.9683C224.538 43.4579 228.54 42.6784 232.572 42.6621C239.596 42.6621 246.133 45.5652 246.133 54.8388C246.133 60.0603 242.697 75.5217 241.842 83.0575H234.115L235.157 76.8737ZM226.229 76.2931C233.095 76.2931 235.157 71.0757 236.531 64.6971H233.278C228.818 64.6971 221.437 65.4685 221.437 72.2329C221.595 74.937 223.827 76.2931 226.229 76.2931Z" fill="#01549C"/>
<path d="M255.238 48.6553C255.587 46.9134 255.753 45.1756 256.096 43.4338H264.851L263.65 50.7788H263.834C265.547 46.5277 270.011 42.4756 274.132 42.4756C275.333 42.4756 276.534 42.4756 277.569 42.8694L275.679 52.9226C274.569 52.5247 273.411 52.3298 272.243 52.342C265.72 52.342 262.633 58.9155 261.429 65.2941L258.169 83.0901H249.072L255.238 48.6553Z" fill="#01549C"/>
<path d="M284.247 66.2441C284.247 73.589 287.68 76.2931 294.03 76.2931C297.809 76.2931 301.404 75.136 304.844 73.3942L303.643 81.5146C300.041 82.6718 296.269 83.6421 292.486 83.6421C282.361 83.6421 275.668 78.035 275.668 66.439C275.668 54.2624 284.081 42.4756 295.58 42.4756C304.162 42.4756 310 47.4981 310 57.5512C309.971 60.5395 309.683 63.5156 309.142 66.4431H284.25L284.247 66.2441ZM300.895 59.2849C301.039 58.3916 301.097 57.4822 301.068 56.5767C301.068 52.3257 299.182 50.0073 295.23 50.0073C289.569 50.0073 287.153 53.8726 285.448 59.2849H300.895Z" fill="#01549C"/>
</svg>
