<svg width="309" height="142" viewBox="0 0 309 142" fill="none" xmlns="http://www.w3.org/2000/svg">
<g clip-path="url(#clip0)">
<path d="M30.6933 76.5733C27.3485 78.3735 26.0919 82.5365 27.8896 85.8829C29.6801 89.2329 33.8493 90.4887 37.1941 88.6958C40.5499 86.8955 41.8101 82.7289 40.0087 79.3789C38.7667 77.067 36.3952 75.7531 33.9437 75.7531C32.847 75.7531 31.732 76.018 30.6933 76.5733Z" fill="#1A237E"/>
<path d="M57.1793 105.24H59.5907L65.0493 115.192H65.0783V105.24H66.8542V117.599H64.588L58.9915 107.44H58.9516V117.599H57.1793V105.24Z" fill="#1A237E"/>
<path d="M76.5092 105.24H78.3723L83.5984 117.599H81.6663L80.4097 114.485H74.3483L73.0918 117.599H71.2323L76.5092 105.24ZM77.3808 106.906L74.9185 113.029H79.8395L77.3808 106.906Z" fill="#1A237E"/>
<path d="M89.1412 106.797H85.2988V105.24H94.7558V106.797H90.9134V117.599H89.1412V106.797Z" fill="#1A237E"/>
<path d="M99.1335 105.239H100.906V117.598H99.1335V105.239Z" fill="#1A237E"/>
<path d="M111.802 105.031C115.557 105.031 117.755 107.756 117.755 111.418C117.755 115.175 115.576 117.813 111.802 117.813C108.029 117.813 105.85 115.175 105.85 111.418C105.85 107.756 108.047 105.031 111.802 105.031ZM111.802 116.256C114.653 116.256 115.877 113.883 115.877 111.418C115.877 108.907 114.53 106.569 111.802 106.588C109.075 106.569 107.727 108.907 107.727 111.418C107.727 113.883 108.948 116.256 111.802 116.256Z" fill="#1A237E"/>
<path d="M122.591 105.24H125.003L130.454 115.192H130.494V105.24H132.266V117.599H129.996L124.396 107.44H124.364V117.599H122.591V105.24Z" fill="#1A237E"/>
<path d="M141.744 105.24H143.607L148.833 117.599H146.897L145.641 114.485H139.583L138.326 117.599H136.463L141.744 105.24ZM142.612 106.906L140.146 113.029H145.074L142.612 106.906Z" fill="#1A237E"/>
<path d="M153.206 105.24H154.978V116.042H160.15V117.599H153.206V105.24Z" fill="#1A237E"/>
<path d="M172.199 105.24H173.968V116.042H179.143V117.599H172.199V105.24Z" fill="#1A237E"/>
<path d="M187.594 105.24H189.453L194.679 117.599H192.751L191.491 114.485H185.433L184.176 117.599H182.317L187.594 105.24ZM188.462 106.906L185.999 113.029H190.928L188.462 106.906Z" fill="#1A237E"/>
<path d="M198.791 105.24H202.14C204.707 105.24 206.48 106.075 206.48 108.358C206.48 110.057 205.488 110.906 203.926 111.298V111.334C205.612 111.472 206.799 112.572 206.799 114.307C206.799 116.96 204.602 117.599 202.085 117.599H198.791V105.24ZM200.563 110.518H201.537C203.255 110.518 204.707 110.361 204.707 108.536C204.707 107.066 203.447 106.692 202.427 106.692H200.563V110.518ZM200.563 116.147H201.893C203.487 116.147 204.922 115.813 204.922 114.147C204.922 112.238 203.236 111.969 201.715 111.969H200.563V116.147Z" fill="#1A237E"/>
<path d="M217.375 105.031C221.134 105.031 223.331 107.756 223.331 111.418C223.331 115.175 221.148 117.813 217.375 117.813C213.601 117.813 211.422 115.175 211.422 111.418C211.422 107.756 213.62 105.031 217.375 105.031ZM217.375 116.256C220.229 116.256 221.45 113.883 221.45 111.418C221.45 108.907 220.106 106.569 217.375 106.588C214.647 106.569 213.3 108.907 213.3 111.418C213.3 113.883 214.524 116.256 217.375 116.256Z" fill="#1A237E"/>
<path d="M228.167 105.24H231.195C233.64 105.24 235.993 105.632 235.993 108.59C235.993 110.093 234.882 111.153 233.443 111.403V111.436C233.992 111.65 234.261 111.919 234.649 112.677L236.988 117.599H234.969L233.073 113.316C232.521 112.111 231.94 112.111 231.003 112.111H229.935V117.599H228.167V105.24ZM229.935 110.554H231.442C233.127 110.554 234.119 109.81 234.119 108.623C234.119 107.509 233.269 106.797 231.638 106.797H229.935V110.554Z" fill="#1A237E"/>
<path d="M245.617 105.24H247.476L252.706 117.599H250.77L249.514 114.485H243.456L242.199 117.599H240.34L245.617 105.24ZM246.485 106.906L244.019 113.029H248.947L246.485 106.906Z" fill="#1A237E"/>
<path d="M258.249 106.797H254.403V105.24H263.864V106.797H260.021V117.599H258.249V106.797Z" fill="#1A237E"/>
<path d="M273.008 105.031C276.764 105.031 278.961 107.756 278.961 111.418C278.961 115.175 276.782 117.813 273.008 117.813C269.231 117.813 267.056 115.175 267.056 111.418C267.056 107.756 269.249 105.031 273.008 105.031ZM273.008 116.256C275.859 116.256 277.08 113.883 277.08 111.418C277.08 108.907 275.736 106.569 273.008 106.588C270.277 106.569 268.934 108.907 268.934 111.418C268.934 113.883 270.154 116.256 273.008 116.256Z" fill="#1A237E"/>
<path d="M283.798 105.24H286.826C289.271 105.24 291.624 105.632 291.624 108.59C291.624 110.093 290.513 111.153 289.074 111.403V111.436C289.626 111.65 289.892 111.919 290.28 112.677L292.619 117.599H290.6L288.704 113.316C288.156 112.111 287.571 112.111 286.634 112.111H285.566V117.599H283.798V105.24ZM285.566 110.554H287.077C288.755 110.554 289.75 109.81 289.75 108.623C289.75 107.509 288.9 106.797 287.269 106.797H285.566V110.554Z" fill="#1A237E"/>
<path d="M300.473 112.429L295.636 105.239H297.71L301.396 110.781L304.988 105.239H307.061L302.242 112.429V117.601H300.473V112.429Z" fill="#1A237E"/>
<path d="M88.5506 2.35841C74.6301 8.12563 51.3325 35.6951 37.9641 70.1968C37.7934 70.6214 37.9822 70.9263 38.2727 70.988C38.7812 71.0896 38.9228 70.8719 39.1262 70.4472C59.1444 27.2275 84.0908 5.26925 94.5539 6.02781C101.338 6.51053 105.217 13.4355 105.362 24.5889C105.369 24.8284 105.514 25.2059 105.852 25.2313C106.23 25.2603 106.473 25.0172 106.502 24.618C107.628 10.14 103.862 3.12788 97.8878 1.31315C96.9908 1.03731 96.0248 0.899391 95.0006 0.899391C93.0612 0.899391 90.904 1.38934 88.5506 2.35841Z" fill="#1A237E"/>
<path d="M100.423 32.1887C85.7905 32.6787 67.3812 36.6421 48.5797 43.3566C30.6824 49.7589 15.1531 57.7801 1.02561 67.7865C0.506268 68.1495 0.400955 68.5415 0.582542 68.8282C0.764129 69.1185 1.27256 69.0786 1.68295 68.8282C15.4001 60.3098 25.184 54.4845 46.3135 46.9316C64.0327 40.6054 81.7774 36.8235 96.2826 36.2827C109.11 35.8073 118.331 37.9596 120.939 42.0355C124.665 47.8499 121.919 54.1833 111.776 63.2025C111.409 63.5146 111.38 63.9138 111.532 64.1135C111.63 64.2478 111.903 64.4147 112.477 64.0445C129.081 53.2142 127.418 43.7122 126.557 41.0772C124.676 35.2701 116.468 32.1415 103.325 32.1415C102.384 32.1415 101.418 32.1561 100.423 32.1887Z" fill="#1A237E"/>
<path d="M150.424 132.418H155.646V133.594H151.76V136.316H155.301V137.492H151.76V140.562H155.646V141.734H150.424V132.418Z" fill="#1A237E"/>
<path d="M163.982 133.82C163.3 133.552 162.929 133.428 162.235 133.428C161.484 133.428 160.601 133.7 160.601 134.673C160.601 136.462 164.614 136.049 164.614 139.119C164.614 141.108 163.074 141.899 161.204 141.899C160.547 141.899 159.908 141.707 159.294 141.511L159.428 140.27C159.882 140.455 160.685 140.723 161.367 140.723C162.127 140.723 163.194 140.295 163.194 139.199C163.194 137.116 159.188 137.693 159.188 134.793C159.188 133.138 160.496 132.26 162.177 132.26C162.795 132.26 163.528 132.365 164.171 132.593L163.982 133.82Z" fill="#1A237E"/>
<path d="M170.249 133.592H167.351V132.417H174.484V133.592H171.586V141.733H170.249V133.592Z" fill="#1A237E"/>
<path d="M176.475 140.242H177.975V141.733H176.475V140.242Z" fill="#1A237E"/>
<path d="M184.641 133.953L183.21 135.18L182.506 134.29L184.786 132.418H185.974V141.734H184.641V133.953Z" fill="#1A237E"/>
<path d="M191.654 140.414C192.137 140.672 192.711 140.802 193.31 140.802C195.046 140.802 195.889 139.202 195.914 137.409L195.889 137.427C195.26 138.037 194.621 138.276 193.844 138.276C192.039 138.276 191.04 137.01 191.04 135.34C191.04 133.416 192.337 132.259 194.033 132.259C196.637 132.259 197.171 134.607 197.171 136.73C197.171 139.253 196.343 141.898 193.39 141.898C192.751 141.898 191.803 141.75 191.465 141.604L191.654 140.414ZM194.018 137.18C195.126 137.18 195.754 136.356 195.754 135.315C195.754 134.433 195.21 133.351 194.109 133.351C192.991 133.351 192.453 134.313 192.453 135.315C192.453 136.182 192.961 137.18 194.018 137.18Z" fill="#1A237E"/>
<path d="M204.426 139.617H200.086V138.521L203.852 132.419H205.762V138.521H206.939V139.617H205.762V141.736H204.426V139.617ZM204.426 133.512H204.4L201.484 138.521H204.426V133.512Z" fill="#1A237E"/>
<path d="M211.161 136.344H211.906C212.868 136.344 214.219 136.007 214.219 134.82C214.219 133.757 213.362 133.35 212.385 133.35C211.546 133.35 210.878 133.582 210.319 133.858L210.235 132.668C210.849 132.443 211.786 132.258 212.574 132.258C214.219 132.258 215.632 133.034 215.632 134.795C215.632 135.971 214.699 136.715 213.631 136.918V136.947C214.873 137.197 215.715 137.934 215.715 139.252C215.715 141.389 213.885 141.897 212.04 141.897C211.292 141.897 210.493 141.709 209.901 141.535L209.985 140.297C210.468 140.536 211.223 140.801 212.029 140.801C213.042 140.801 214.299 140.402 214.299 139.215C214.299 137.825 213.177 137.437 211.975 137.437H211.161V136.344Z" fill="#1A237E"/>
<path d="M57.3176 137.523H141.164V136.308H57.3176V137.523Z" fill="#1A237E"/>
<path d="M224.857 137.523H307.164V136.308H224.857V137.523Z" fill="#1A237E"/>
<path d="M57.3133 59.292H64.7003V90.1715H78.9984V95.9678H57.3133V59.292Z" fill="#1A237E"/>
<path d="M128.422 74.5126C126.261 73.7759 124.677 73.3548 122.099 73.3548C120.192 73.3548 117.926 74.0408 117.926 76.3564C117.926 80.6827 130.212 77.9389 130.212 87.742C130.212 94.0682 124.568 96.6016 118.823 96.6016C116.132 96.6016 113.39 96.1225 110.811 95.4401L111.229 89.6439C113.444 90.7472 115.761 91.4296 118.187 91.4296C119.989 91.4296 122.836 90.7472 122.836 88.1159C122.836 82.7878 110.543 86.4245 110.543 76.625C110.543 70.7743 115.653 68.1901 121.198 68.1901C124.518 68.1901 126.686 68.7128 128.894 69.1918L128.422 74.5126Z" fill="#1A237E"/>
<path d="M152.182 59.1749H160.517L174.964 95.9668H166.793L163.63 87.5319H148.703L145.485 95.9668H137.837L152.182 59.1749ZM156.243 66.5536H156.141L150.813 81.7357H161.57L156.243 66.5536Z" fill="#1A237E"/>
<path d="M177.205 59.2214H184.273V95.9697H177.205V59.2214Z" fill="#1A237E"/>
<path d="M190.327 70.2444C193.065 68.9777 196.762 68.1901 199.773 68.1901C208.046 68.1901 211.474 71.6127 211.474 79.6266V83.1036C211.474 85.8438 211.525 87.9017 211.58 89.9052C211.634 91.9595 211.736 93.8649 211.892 95.97H205.671C205.413 94.54 205.413 92.7543 205.358 91.9087H205.249C203.619 94.9102 200.085 96.6016 196.871 96.6016C192.07 96.6016 187.37 93.7016 187.37 88.5296C187.37 84.4755 189.324 82.1019 192.008 80.7844C194.703 79.4669 198.186 79.2019 201.142 79.2019H205.035C205.035 74.8357 203.089 73.3548 198.923 73.3548C195.912 73.3548 192.912 74.5126 190.537 76.3056L190.327 70.2444ZM198.607 91.4296C200.764 91.4296 202.457 90.4859 203.564 89.0087C204.723 87.4807 205.035 85.5281 205.035 83.4157H201.981C198.821 83.4157 194.122 83.9492 194.122 88.1159C194.122 90.4387 196.076 91.4296 198.607 91.4296Z" fill="#1A237E"/>
<path d="M215.798 68.822H222.393V72.6112H222.495C224.714 69.2902 227.928 68.1905 230.565 68.1905C234.36 68.1905 237.055 69.6132 238.58 72.9814C240.218 69.7185 243.751 68.1905 247.075 68.1905C253.771 68.1905 255.667 72.7709 255.667 78.8357V95.9668H248.603V79.783C248.603 77.2496 248.603 73.671 244.543 73.671C239.847 73.671 239.266 79.2567 239.266 82.7846V95.9668H232.199V79.783C232.199 77.2496 232.199 73.671 228.142 73.671C223.45 73.671 222.869 79.2567 222.869 82.7846V95.9668H215.798V68.822Z" fill="#1A237E"/>
<path d="M287.867 82.382C287.867 90.2471 281.446 96.624 272.958 96.624C264.554 96.624 258.046 90.2471 258.046 82.382C258.046 74.5242 264.511 68.1581 272.958 68.1581C281.446 68.1581 287.867 74.5242 287.867 82.382ZM280.349 82.5127C280.349 77.8742 277.364 74.1177 273.082 74.1177C268.785 74.1177 265.811 77.8742 265.811 82.5127C265.811 87.1584 268.836 90.9221 273.082 90.9221C277.313 90.9221 280.356 87.1584 280.349 82.5127Z" fill="#1A237E"/>
<path d="M109.192 82.382C109.192 90.2471 102.771 96.624 94.2873 96.624C85.8762 96.624 79.3681 90.2471 79.3681 82.382C79.3681 74.5242 85.8435 68.1581 94.2873 68.1581C102.771 68.1581 109.192 74.5242 109.192 82.382ZM101.598 82.5127C101.598 77.8742 98.6091 74.1177 94.3273 74.1177C90.0309 74.1177 87.0565 77.8742 87.0565 82.5127C87.0565 87.1584 90.0854 90.9221 94.3273 90.9221C98.5619 90.9221 101.602 87.1584 101.598 82.5127Z" fill="#1A237E"/>
<path d="M306.708 74.5126C304.54 73.7759 302.96 73.3548 300.381 73.3548C298.475 73.3548 296.216 74.0408 296.216 76.3564C296.216 80.6827 308.502 77.9389 308.502 87.742C308.502 94.0682 302.858 96.6016 297.105 96.6016C294.418 96.6016 291.676 96.1225 289.097 95.4401L289.511 89.6439C291.73 90.7472 294.047 91.4296 296.477 91.4296C298.264 91.4296 301.118 90.7472 301.118 88.1159C301.118 82.7878 288.829 86.4245 288.829 76.625C288.829 70.7743 293.942 68.1901 299.481 68.1901C302.804 68.1901 304.968 68.7128 307.183 69.1918L306.708 74.5126Z" fill="#1A237E"/>
</g>
<defs>
<clipPath id="clip0">
<rect width="308" height="141" fill="white" transform="translate(0.5 0.899414)"/>
</clipPath>
</defs>
</svg>
