<svg width="93" height="93" viewBox="0 0 93 93" fill="none" xmlns="http://www.w3.org/2000/svg">
<path d="M79.3231 5.62917C79.3696 6.70827 79.0978 7.77703 78.5419 8.70029C77.9861 9.62352 77.1712 10.3598 76.2004 10.8158C75.2295 11.2719 74.1464 11.4273 73.088 11.2624C72.0295 11.0975 71.0434 10.6197 70.2543 9.8894C69.4652 9.15914 68.9086 8.20923 68.6549 7.15985C68.4012 6.11048 68.4618 5.00881 68.8291 3.9942C69.1964 2.97958 69.8538 2.09763 70.7182 1.45993C71.5826 0.822217 72.6151 0.457405 73.6851 0.411645C75.1186 0.350343 76.5176 0.865425 77.5747 1.84374C78.6319 2.82204 79.2607 4.18356 79.3231 5.62917Z" fill="#767677"/>
<path d="M47.759 69.8259C33.3439 69.8259 20.7546 64.5438 14.2197 56.7256C16.6535 63.741 21.1895 69.8199 27.1998 74.1209C33.2102 78.4218 40.3974 80.7322 47.7671 80.7322C55.1367 80.7322 62.3239 78.4218 68.3343 74.1209C74.3445 69.8199 78.8806 63.741 81.3144 56.7256C74.7634 64.5438 62.1743 69.8259 47.759 69.8259Z" fill="#F37726"/>
<path d="M47.7565 18.9698C62.1718 18.9698 74.7611 24.252 81.296 32.0701C78.8621 25.0548 74.3261 18.9759 68.3159 14.6749C62.3055 10.3739 55.1182 8.06348 47.7486 8.06348C40.379 8.06348 33.1917 10.3739 27.1814 14.6749C21.1711 18.9759 16.6351 25.0548 14.2013 32.0701C20.7522 24.2681 33.3414 18.9698 47.7565 18.9698Z" fill="#F37726"/>
<path d="M27.9698 85.0294C28.0289 86.3899 27.6864 87.7376 26.9856 88.9017C26.2848 90.0658 25.2573 90.994 24.0332 91.5688C22.809 92.1437 21.4432 92.3392 20.1088 92.1308C18.7744 91.9224 17.5313 91.3193 16.5369 90.3979C15.5425 89.4766 14.8416 88.2783 14.5228 86.955C14.204 85.6316 14.2818 84.2426 14.7462 82.9639C15.2106 81.6851 16.0408 80.5741 17.1317 79.7714C18.2226 78.9688 19.5251 78.5106 20.8743 78.455C22.679 78.3805 24.4393 79.0308 25.7694 80.2632C27.0994 81.4956 27.8907 83.2095 27.9698 85.0294Z" fill="#989798"/>
<path d="M15.8627 17.2018C15.0711 17.2363 14.2871 17.0332 13.61 16.6181C12.9329 16.2031 12.3932 15.5948 12.0591 14.8702C11.7249 14.1456 11.6115 13.3374 11.733 12.5477C11.8546 11.7581 12.2057 11.0226 12.7419 10.4343C13.2781 9.846 13.9753 9.43136 14.7453 9.24287C15.5153 9.05437 16.3234 9.1005 17.0674 9.3754C17.8113 9.65031 18.4577 10.1416 18.9247 10.7872C19.3917 11.4328 19.6582 12.2035 19.6907 13.002C19.7341 14.0705 19.3554 15.1128 18.6378 15.9002C17.9201 16.6876 16.9221 17.1557 15.8627 17.2018Z" fill="#6F7070"/>
</svg>
