<svg width="84" height="83" viewBox="0 0 84 83" fill="none" xmlns="http://www.w3.org/2000/svg">
<path d="M37.0174 77.0955C36.5873 77.0955 36.1573 76.7723 36.1573 76.2336V63.1978C36.1573 62.7669 36.4798 62.3359 37.0174 62.3359C37.555 62.3359 37.8775 62.6591 37.8775 63.1978V76.2336C37.77 76.6646 37.4475 77.0955 37.0174 77.0955Z" fill="#47B39D" stroke="#47B39D"/>
<path d="M46.9087 77.0955C46.4787 77.0955 46.0486 76.7723 46.0486 76.2336V63.1978C46.0486 62.7669 46.3712 62.3359 46.9087 62.3359C47.3388 62.3359 47.7689 62.6591 47.7689 63.1978V76.2336C47.6613 76.6646 47.3388 77.0955 46.9087 77.0955Z" fill="#47B39D" stroke="#47B39D"/>
<path d="M80.4209 63.9521H3.39775C1.99855 63.9521 1.00006 63.1421 1.00006 61.5599V8.59876C1.00005 6.9925 2.01067 6.20654 3.39775 6.20654H80.4209C82.0033 6.20654 82.8186 6.98599 82.8186 8.59876V61.5599C82.8186 63.1555 82.0034 63.9521 80.4209 63.9521ZM2.61278 61.3361C2.61278 61.8884 3.06049 62.3361 3.61278 62.3361H80.2059C80.7581 62.3361 81.2059 61.8884 81.2059 61.3361V8.82256C81.2059 8.27027 80.7581 7.82256 80.2059 7.82256L3.61278 7.82256C3.0605 7.82256 2.61278 8.27027 2.61278 8.82256V61.3361Z" fill="#47B39D" stroke="#47B39D"/>
<path d="M81.9595 53.9327H1.85905C1.42955 53.9327 1.00006 53.6095 1.00006 53.0709C1.00006 52.5322 1.32218 52.209 1.85905 52.209H81.9595C82.389 52.209 82.8185 52.5322 82.8185 53.0709C82.8185 53.6095 82.389 53.9327 81.9595 53.9327Z" fill="#47B39D" stroke="#47B39D"/>
<path d="M63.1434 77.0958H20.7827C20.3527 77.0958 19.9226 76.7726 19.9226 76.2339C19.9226 75.803 20.2451 75.3721 20.7827 75.3721H63.1434C63.5735 75.3721 64.0035 75.6953 64.0035 76.2339C63.896 76.6649 63.5735 77.0958 63.1434 77.0958Z" fill="#47B39D" stroke="#47B39D"/>
<path d="M29.8078 21.6498C30.6046 20.8849 30.6305 19.6188 29.8655 18.822C29.1005 18.0251 27.8345 17.9993 27.0377 18.7643L29.8078 21.6498ZM20.6854 27.6349L19.3003 26.1921L19.3003 26.1921L20.6854 27.6349ZM20.6854 31.9632L19.3003 33.406L20.6854 31.9632ZM27.0377 40.8339C27.8345 41.5988 29.1005 41.573 29.8655 40.7762C30.6305 39.9793 30.6046 38.7133 29.8078 37.9483L27.0377 40.8339ZM27.0377 18.7643L19.3003 26.1921L22.0705 29.0777L29.8078 21.6498L27.0377 18.7643ZM19.3003 33.406L27.0377 40.8339L29.8078 37.9483L22.0705 30.5205L19.3003 33.406ZM19.3003 26.1921C17.2505 28.1599 17.2506 31.4382 19.3003 33.406L22.0705 30.5205C21.6605 30.1269 21.6605 29.4712 22.0705 29.0777L19.3003 26.1921Z" fill="#47B39D"/>
<path d="M54.1183 37.9483C53.3215 38.7133 53.2957 39.9794 54.0606 40.7762C54.8256 41.573 56.0916 41.5988 56.8885 40.8339L54.1183 37.9483ZM63.2407 31.9632L64.6258 33.406V33.406L63.2407 31.9632ZM63.2407 27.6349L64.6258 26.1921L63.2407 27.6349ZM56.8885 18.7643C56.0916 17.9993 54.8256 18.0252 54.0606 18.822C53.2957 19.6188 53.3215 20.8849 54.1183 21.6498L56.8885 18.7643ZM56.8885 40.8339L64.6258 33.406L61.8557 30.5205L54.1183 37.9483L56.8885 40.8339ZM64.6258 26.1921L56.8885 18.7643L54.1183 21.6498L61.8557 29.0777L64.6258 26.1921ZM64.6258 33.406C66.6756 31.4382 66.6756 28.1599 64.6258 26.1921L61.8557 29.0777C62.2656 29.4713 62.2656 30.1269 61.8557 30.5205L64.6258 33.406Z" fill="#47B39D"/>
<line x1="48.5779" y1="15.7553" x2="36.3775" y2="45.8482" stroke="#47B39D" stroke-width="4" stroke-linecap="round"/>
</svg>
