<svg width="84" height="83" viewBox="0 0 84 83" fill="none" xmlns="http://www.w3.org/2000/svg">
<path d="M80.5116 64.6498H3.48845C2.08924 64.6498 1.09076 63.8398 1.09076 62.2576V9.29651C1.09074 7.69025 2.10137 6.9043 3.48845 6.9043H80.5116C82.094 6.9043 82.9092 7.68374 82.9092 9.29651V62.2576C82.9092 63.8532 82.094 64.6498 80.5116 64.6498ZM2.70348 62.0338C2.70348 62.5861 3.15119 63.0338 3.70348 63.0338H80.2965C80.8488 63.0338 81.2965 62.5861 81.2965 62.0338V9.52031C81.2965 8.96802 80.8488 8.52031 80.2965 8.52031L3.70348 8.52031C3.15119 8.52031 2.70348 8.96803 2.70348 9.52031V62.0338Z" fill="#47B39D" stroke="#47B39D"/>
<path d="M37.1075 77.7938C36.6777 77.7938 36.2479 77.4706 36.2479 76.9319V63.8961C36.2479 63.4651 36.5703 63.0342 37.1075 63.0342C37.6448 63.0342 37.9672 63.3574 37.9672 63.8961V76.9319C37.8597 77.3629 37.5374 77.7938 37.1075 77.7938Z" fill="#47B39D" stroke="#47B39D"/>
<path d="M46.9994 77.7938C46.5693 77.7938 46.1393 77.4706 46.1393 76.9319V63.8961C46.1393 63.4651 46.4618 63.0342 46.9994 63.0342C47.4294 63.0342 47.8595 63.3574 47.8595 63.8961V76.9319C47.752 77.3629 47.4294 77.7938 46.9994 77.7938Z" fill="#47B39D" stroke="#47B39D"/>
<path d="M82.0503 54.631H1.94975C1.52025 54.631 1.09076 54.3077 1.09076 53.7691C1.09076 53.2304 1.41288 52.9072 1.94975 52.9072H82.0503C82.4798 52.9072 82.9092 53.2304 82.9092 53.7691C82.9092 54.3077 82.4798 54.631 82.0503 54.631Z" fill="#47B39D" stroke="#47B39D"/>
<path d="M63.2341 77.7941H20.8734C20.4434 77.7941 20.0133 77.4709 20.0133 76.9322C20.0133 76.5012 20.3358 76.0703 20.8734 76.0703H63.2341C63.6642 76.0703 64.0942 76.3935 64.0942 76.9322C63.9867 77.3631 63.6642 77.7941 63.2341 77.7941Z" fill="#47B39D" stroke="#47B39D"/>
<circle cx="41.8434" cy="15.01" r="2.01053" fill="#47B39D" stroke="#47B39D" stroke-width="2"/>
<circle cx="13.0202" cy="31.8665" r="2.01053" fill="#47B39D" stroke="#47B39D" stroke-width="2"/>
<circle cx="42.4981" cy="48.4348" r="2.01053" fill="#47B39D" stroke="#47B39D" stroke-width="2"/>
<circle cx="70.9798" cy="31.7337" r="2.01053" fill="#47B39D" stroke="#47B39D" stroke-width="2"/>
<path d="M14.915 30.1968L40.108 16.3952" stroke="#47B39D" stroke-width="2"/>
<path d="M17.3639 34.3559L47.8874 18.3102" stroke="#47B39D" stroke-width="2"/>
<line x1="35.6286" y1="44.4208" x2="66.6752" y2="28.2418" stroke="#47B39D" stroke-width="2"/>
<path d="M29.9941 41.6971C29.9941 41.6971 33.6044 39.6953 35.9219 37.9248C40.1074 34.7274 41.0056 32.8772 45.3612 29.3571C48.4621 26.851 51.1607 28.3768 54.3413 27.935C56.6897 27.6088 61.3945 25.0769 61.3945 25.0769" stroke="#47B39D" stroke-width="2"/>
<path d="M23.8545 38.2893C23.8545 38.2893 27.0869 36.3395 29.1742 34.9929C32.5788 32.7965 37.8393 25.8939 41.3622 24.6001C44.3532 23.5016 45.9547 25.0917 49.0413 24.3004C51.4925 23.672 54.1907 22.0203 54.1907 22.0203" stroke="#47B39D" stroke-width="2"/>
<line x1="44.3535" y1="47.0317" x2="69.3341" y2="32.5905" stroke="#47B39D" stroke-width="2"/>
<path d="M43.7385 16.2753L69.9661 29.7729" stroke="#47B39D" stroke-width="2"/>
<line x1="15.5281" y1="33.021" x2="40.8546" y2="47.0364" stroke="#47B39D" stroke-width="2"/>
<line x1="18.2293" y1="28.4934" x2="49.1886" y2="44.5716" stroke="#47B39D" stroke-width="2"/>
<path d="M23.4897 25.3195C23.4897 25.3195 27.2418 27.3644 29.6472 27.8392C32.2416 28.3514 34.2969 27.2793 36.809 28.1055C39.0119 28.8301 39.7724 29.757 41.4703 31.3366C43.7815 33.4866 46.4631 36.263 48.7978 38.0298C51.0178 39.7098 54.0938 41.415 54.0938 41.415" stroke="#47B39D" stroke-width="2"/>
<path d="M36.4377 18.3507L67.056 34.3568" stroke="#47B39D" stroke-width="2"/>
<path d="M30.0148 21.9409C30.0148 21.9409 33.8944 24.4763 38.2325 24.4763C40.7415 24.4763 43.5695 24.4765 45.0274 25.6578C46.0085 26.4528 51.1295 31.2474 53.3183 33.2261C56.09 35.9285 60.3186 37.9346 60.3186 37.9346" stroke="#47B39D" stroke-width="2"/>
</svg>
