<svg width="82" height="83" viewBox="0 0 82 83" fill="none" xmlns="http://www.w3.org/2000/svg">
<path d="M78.0869 30.3068C78.0869 29.4784 77.4153 28.8068 76.5869 28.8068H67.8302C67.0018 28.8068 66.3302 29.4784 66.3302 30.3068V67.0768C66.3302 67.9053 67.0018 68.5768 67.8302 68.5768H76.5869C77.4153 68.5768 78.0869 67.9053 78.0869 67.0768V30.3068ZM63.8469 30.2985C63.8469 29.1617 64.2869 28.164 64.9621 27.4861C65.6345 26.811 66.6298 26.3638 67.7745 26.2969H76.5168C77.6276 26.2969 78.6253 26.7937 79.3149 27.4861C80.0672 28.2415 80.5002 29.242 80.5002 30.2985V67.0852C80.5002 68.2025 80.0045 69.2052 79.3149 69.8975C78.5626 70.6529 77.5671 71.0868 76.5168 71.0868H67.7602C66.6535 71.0868 65.659 70.5936 64.9697 69.9052C64.2789 69.1447 63.8469 68.1401 63.8469 67.0852V30.2985Z" fill="#47B39D" stroke="#47B39D"/>
<path d="M57.2811 48.5246C57.2811 47.6962 56.6096 47.0246 55.7811 47.0246H46.9545C46.1261 47.0246 45.4545 47.6962 45.4545 48.5246V67.1475C45.4545 67.9759 46.1261 68.6475 46.9545 68.6475H55.7811C56.6096 68.6475 57.2811 67.9759 57.2811 67.1475V48.5246ZM44.1564 45.7039C44.9087 44.9485 45.9042 44.5146 46.9545 44.5146H55.7111C56.8219 44.5146 57.8196 45.0115 58.5092 45.7039C59.2615 46.4593 59.6945 47.4597 59.6945 48.5163V67.0855C59.6945 68.2028 59.1987 69.2055 58.5092 69.8978C57.7569 70.6532 56.7614 71.0871 55.7111 71.0871H46.9545C45.8437 71.0871 44.846 70.5902 44.1564 69.8978C43.4041 69.1425 42.9711 68.142 42.9711 67.0855V48.5163C42.9711 47.3936 43.4009 46.4624 44.1564 45.7039Z" fill="#47B39D" stroke="#47B39D"/>
<path d="M36.5456 36.0739C36.5456 35.2455 35.874 34.5739 35.0456 34.5739H26.2189C25.3905 34.5739 24.7189 35.2455 24.7189 36.0739V67.0762C24.7189 67.9046 25.3905 68.5762 26.2189 68.5762H35.0456C35.874 68.5762 36.5456 67.9046 36.5456 67.0762V36.0739ZM23.4208 33.3235C24.1731 32.5682 25.1686 32.1343 26.2189 32.1343H35.0456C36.0945 32.1343 37.0941 32.5673 37.8514 33.2609C38.599 34.0154 39.029 35.0126 39.029 36.0656V67.1548C39.029 68.2722 38.5333 69.2748 37.8437 69.9672C37.0914 70.7226 36.0959 71.1564 35.0456 71.1564H26.2189C25.1081 71.1564 24.1104 70.6596 23.4208 69.9672C22.6685 69.2118 22.2355 68.2113 22.2355 67.1548V36.1359C22.2355 35.0185 22.7312 34.0159 23.4208 33.3235Z" fill="#47B39D" stroke="#47B39D"/>
<path d="M15.74 43.1789C15.74 42.3504 15.0684 41.6789 14.24 41.6789H5.48337C4.65494 41.6789 3.98337 42.3504 3.98337 43.1789V67.0771C3.98337 67.9055 4.65494 68.5771 5.48337 68.5771H14.24C15.0684 68.5771 15.74 67.9055 15.74 67.0771V43.1789ZM2.68527 40.4285C3.43758 39.6731 4.43304 39.2393 5.48337 39.2393H14.24C15.3508 39.2393 16.3485 39.7361 17.0381 40.4285C17.7904 41.1839 18.2233 42.1844 18.2233 43.2409V67.1557C18.2233 68.2731 17.7276 69.2757 17.0381 69.9681C16.2857 70.7235 15.2903 71.1573 14.24 71.1573H5.48337C4.37254 71.1573 3.37487 70.6605 2.68527 69.9681C1.93294 69.2127 1.5 68.2123 1.5 67.1557V43.2409C1.5 42.1235 1.99571 41.1209 2.68527 40.4285Z" fill="#47B39D" stroke="#47B39D"/>
<path d="M69.2113 15.3509L69.3809 15.2016V14.9756V14.332V13.9803C69.3809 12.2271 70.8278 10.8228 72.5937 10.8228C74.4172 10.8228 75.8765 12.2851 75.8765 14.121C75.8765 15.9569 74.4172 17.4192 72.5937 17.4192C72.3491 17.4192 72.1546 17.3792 71.8703 17.3208C71.8296 17.3124 71.787 17.3036 71.7422 17.2946L71.3674 17.1691L71.0951 17.0569L70.8104 16.9395L70.5775 17.141L54.8936 30.7065L54.7207 30.856V31.0846V31.7054V32.0394C54.5905 33.8175 53.1923 35.1443 51.4378 35.1443C50.0493 35.1443 48.7767 34.2371 48.3472 32.8381L48.2951 32.6289V32.0571V31.7846L48.066 31.6369L33.3365 22.1413L33.1059 21.9927L32.8567 22.1072L32.2693 22.3773L31.8746 22.5094C31.5105 22.6312 31.0743 22.6946 30.7023 22.6946C30.1538 22.6946 29.6699 22.574 29.1753 22.3257L28.8053 22.1399L28.5525 21.9315L28.2895 21.7147L27.9916 21.8802L13.857 29.7315L13.5998 29.8744V30.1686V30.5388L13.5365 30.9202L13.5343 30.9336L13.5328 30.9471C13.3512 32.5878 11.9587 33.8079 10.317 33.8079C8.49344 33.8079 7.03412 32.3456 7.03412 30.5097C7.03412 28.6798 8.55748 27.2115 10.317 27.2115C10.6441 27.2115 11.0599 27.3238 11.4754 27.4623L11.7361 27.567L12.0547 27.8384L12.3213 28.0655L12.6258 27.8925L27.1532 19.6414L27.4063 19.4977V19.2067V18.8865L27.4745 18.6036C27.8403 17.2029 29.1156 16.1684 30.6322 16.1684C32.2651 16.1684 33.6515 17.3755 33.845 19.0029V19.3963V19.9851V20.2587L34.0754 20.4062L48.347 29.5412L48.6247 29.719L48.8974 29.5337L49.3213 29.2458L49.7952 28.9739L49.8038 28.969L49.8122 28.9637C50.2775 28.6717 50.8113 28.5479 51.3678 28.5479C51.6544 28.5479 51.9496 28.6044 52.3002 28.6748L52.7517 28.8043L53.294 29.0082L53.575 29.1139L53.8003 28.9156L69.2113 15.3509Z" fill="#47B39D" stroke="#47B39D"/>
</svg>
