<svg width="84" height="83" viewBox="0 0 84 83" fill="none" xmlns="http://www.w3.org/2000/svg">
<path d="M37.0173 76.889C36.5873 76.889 36.1572 76.5658 36.1572 76.0271V62.9913C36.1572 62.5603 36.4798 62.1294 37.0173 62.1294C37.5549 62.1294 37.8775 62.4526 37.8775 62.9913V76.0271C37.7699 76.458 37.4474 76.889 37.0173 76.889Z" fill="#47B39D" stroke="#47B39D"/>
<path d="M46.9087 76.889C46.4786 76.889 46.0486 76.5658 46.0486 76.0271V62.9913C46.0486 62.5603 46.3711 62.1294 46.9087 62.1294C47.3387 62.1294 47.7688 62.4526 47.7688 62.9913V76.0271C47.6613 76.458 47.3387 76.889 46.9087 76.889Z" fill="#47B39D" stroke="#47B39D"/>
<path d="M80.4208 63.7456H3.39769C1.99848 63.7456 1 62.9356 1 61.3534V8.39222C0.999985 6.78596 2.01061 6 3.39769 6H80.4208C82.0033 6 82.8185 6.77945 82.8185 8.39222V61.3534C82.8185 62.949 82.0033 63.7456 80.4208 63.7456ZM2.61272 61.1296C2.61272 61.6819 3.06043 62.1296 3.61272 62.1296H80.2058C80.7581 62.1296 81.2058 61.6819 81.2058 61.1296V8.61601C81.2058 8.06373 80.7581 7.61602 80.2058 7.61602L3.61272 7.61602C3.06044 7.61602 2.61272 8.06373 2.61272 8.61602V61.1296Z" fill="#47B39D" stroke="#47B39D"/>
<path d="M81.9595 53.7262H1.85899C1.42949 53.7262 1 53.403 1 52.8643C1 52.3256 1.32212 52.0024 1.85899 52.0024H81.9595C82.389 52.0024 82.8185 52.3256 82.8185 52.8643C82.8185 53.403 82.389 53.7262 81.9595 53.7262Z" fill="#47B39D" stroke="#47B39D"/>
<path d="M63.1434 76.8893H20.7827C20.3526 76.8893 19.9225 76.5661 19.9225 76.0274C19.9225 75.5965 20.2451 75.1655 20.7827 75.1655H63.1434C63.5734 75.1655 64.0035 75.4887 64.0035 76.0274C63.896 76.4583 63.5734 76.8893 63.1434 76.8893Z" fill="#47B39D" stroke="#47B39D"/>
<path d="M28.4282 46.2387H25.4902C24.7965 46.2387 24.2252 45.6674 24.2252 45.0145V43.1783C24.1844 42.9334 24.0212 42.6886 23.7763 42.607L22.8786 42.2397C22.6338 42.1173 22.3073 42.1581 22.1033 42.3213L20.7567 43.6271C20.267 44.076 19.4509 44.076 18.9612 43.6271L16.8801 41.5868C16.3904 41.0972 16.3904 40.3219 16.8801 39.8322L18.2267 38.5264C18.3899 38.3224 18.4307 38.0367 18.3491 37.8327L17.9819 36.9758C17.9003 36.7309 17.6554 36.5677 17.3698 36.5269H15.4519C14.7582 36.5269 14.1869 35.9556 14.1869 35.3027V32.4463C14.1869 31.7526 14.7582 31.2221 15.4519 31.2221H17.3698C17.6554 31.2221 17.8595 31.0181 17.9819 30.814L18.3491 29.9571C18.4715 29.7123 18.4307 29.4266 18.2267 29.2226L16.8801 27.876C16.3904 27.3863 16.3904 26.611 16.8801 26.1213L18.9612 24.1218C19.4509 23.673 20.267 23.673 20.7567 24.1218L22.1033 25.4276C22.3073 25.5909 22.593 25.6317 22.8378 25.5501L23.7355 25.1828C23.9804 25.1012 24.1844 24.8564 24.1844 24.5707V22.7344C24.1844 22.0407 24.7557 21.5103 25.4494 21.5103H28.3874C29.0811 21.5103 29.6524 22.0815 29.6524 22.7344V24.5707C29.6932 24.8155 29.8564 25.0604 30.1013 25.142L30.999 25.5092C31.2438 25.6317 31.5703 25.5909 31.7743 25.4276L33.1209 24.1218C33.6106 23.673 34.4267 23.673 34.9164 24.1218L36.9975 26.1213C37.4872 26.611 37.4872 27.3863 36.9975 27.876L35.6101 29.1818C35.4469 29.3858 35.4061 29.6715 35.4877 29.8755L35.8549 30.7324C35.9365 30.9773 36.1814 31.1813 36.467 31.1813H38.4257C39.1194 31.1813 39.6907 31.7526 39.6907 32.4055V35.2619C39.6907 35.9556 39.1194 36.4861 38.4257 36.4861H36.5894C36.3446 36.5269 36.0998 36.6493 35.9773 36.8941L35.6101 37.7511C35.4877 37.9959 35.5285 38.2815 35.7325 38.4856L37.0791 39.7914C37.5688 40.281 37.5688 41.0564 37.0791 41.546L34.998 43.5455C34.5083 43.9944 33.6922 43.9944 33.2025 43.5455L31.8559 42.2397C31.6519 42.0765 31.3663 42.0357 31.1214 42.1173L30.2237 42.4846C29.9789 42.5662 29.7748 42.811 29.7748 43.0967V44.9329C29.734 45.7083 29.1627 46.2795 28.4282 46.2387ZM22.593 41.2604C22.8378 41.2604 23.0826 41.3012 23.2867 41.4236L24.1028 41.7501C24.7149 41.9949 25.1229 42.5662 25.1637 43.2191V45.0554C25.1637 45.2186 25.327 45.3818 25.4902 45.3818H28.4282C28.5914 45.3818 28.7547 45.2594 28.7547 45.0554V43.2191C28.7955 42.5662 29.2035 41.9949 29.8564 41.7501L30.6726 41.4236C31.2846 41.1788 31.9784 41.3012 32.468 41.7093L33.8146 43.0151C33.937 43.1375 34.1411 43.1375 34.2635 43.0151L36.3446 41.0156C36.4262 40.9747 36.4262 40.8931 36.4262 40.8115C36.4262 40.7299 36.3854 40.6483 36.3446 40.6075L34.998 39.2609C34.5491 38.812 34.4267 38.1183 34.6716 37.5062L34.998 36.6901C35.2428 36.078 35.8549 35.67 36.5486 35.67H38.4665C38.6297 35.67 38.793 35.5475 38.793 35.3435V32.4871C38.793 32.3239 38.6297 32.1606 38.4665 32.1606H36.5486C35.8549 32.1198 35.2836 31.7118 35.0388 31.0997L34.6307 30.2836C34.3859 29.7123 34.4675 29.0186 34.9164 28.5289L36.263 27.2231C36.3446 27.1823 36.3446 27.1007 36.3446 27.0191C36.3446 26.9375 36.3038 26.8558 36.263 26.815L34.1819 24.7747C34.0595 24.6523 33.8554 24.6523 33.733 24.7747L32.4272 26.0805C31.9375 26.5294 31.203 26.611 30.5909 26.3662L29.7748 26.0397C29.1627 25.7949 28.7547 25.2236 28.7139 24.5707V22.7344C28.7139 22.5712 28.5506 22.408 28.3874 22.408H25.4494C25.2862 22.408 25.1229 22.5304 25.1229 22.7344V24.5707C25.0821 25.2236 24.6741 25.7949 24.0212 26.0397L23.205 26.3662C22.593 26.611 21.8993 26.4886 21.4096 26.0805L20.063 24.7747C19.9406 24.6523 19.7365 24.6523 19.6141 24.7747L17.533 26.815C17.4106 26.9375 17.4106 27.1415 17.533 27.2639L18.8796 28.5697C19.3285 29.0594 19.4509 29.7531 19.1652 30.3244L18.8388 31.1405C18.594 31.7526 18.0227 32.1606 17.329 32.1606H15.4111C15.2479 32.1606 15.0846 32.2831 15.0846 32.4871V35.3435C15.0846 35.5067 15.2479 35.67 15.4111 35.67H17.329C18.0227 35.7108 18.594 36.1188 18.8388 36.7309L19.1652 37.547C19.4101 38.1183 19.2877 38.812 18.8388 39.3017L17.4922 40.6075C17.4106 40.6483 17.4106 40.7299 17.4106 40.8115C17.4106 40.8931 17.4514 40.9747 17.4922 41.0156L19.5733 43.0559C19.6957 43.1783 19.8998 43.1783 20.0222 43.0559L21.3688 41.7501C21.736 41.3828 22.1441 41.2196 22.593 41.2604ZM26.9592 38.0775C24.5516 38.0775 22.593 36.2004 22.593 33.8745C22.593 31.5485 24.5516 29.6715 26.9592 29.6715C29.3668 29.6715 31.3255 31.5485 31.3255 33.8745C31.3255 36.2004 29.3668 38.0775 26.9592 38.0775ZM26.9592 30.5692C25.0821 30.5692 23.5723 32.0382 23.5723 33.8745C23.5723 35.7108 25.0821 37.1798 26.9592 37.1798C28.8363 37.1798 30.3461 35.7108 30.3461 33.8745C30.3461 32.0382 28.8363 30.5692 26.9592 30.5692Z" fill="#47B39D" stroke="#47B39D"/>
<path d="M58.8114 34.2288H56.5172C55.9755 34.2288 55.5294 33.7827 55.5294 33.2729V31.839C55.4975 31.6478 55.3701 31.4566 55.1789 31.3929L54.4778 31.1061C54.2867 31.0105 54.0317 31.0424 53.8724 31.1698L52.8209 32.1895C52.4385 32.54 51.8012 32.54 51.4189 32.1895L49.7938 30.5963C49.4114 30.2139 49.4114 29.6085 49.7938 29.2261L50.8453 28.2064C50.9727 28.0471 51.0046 27.8241 50.9409 27.6648L50.6541 26.9956C50.5904 26.8044 50.3992 26.677 50.1761 26.6451H48.6785C48.1368 26.6451 47.6907 26.199 47.6907 25.6892V23.4586C47.6907 22.9169 48.1368 22.5027 48.6785 22.5027H50.1761C50.3992 22.5027 50.5585 22.3434 50.6541 22.1841L50.9409 21.5149C51.0365 21.3237 51.0046 21.1007 50.8453 20.9413L49.7938 19.8898C49.4114 19.5074 49.4114 18.902 49.7938 18.5196L51.4189 16.9583C51.8012 16.6078 52.4385 16.6078 52.8209 16.9583L53.8724 17.9779C54.0317 18.1054 54.2548 18.1373 54.446 18.0735L55.147 17.7868C55.3382 17.723 55.4975 17.5318 55.4975 17.3088V15.8749C55.4975 15.3332 55.9436 14.9189 56.4853 14.9189H58.7796C59.3213 14.9189 59.7674 15.365 59.7674 15.8749V17.3088C59.7992 17.5 59.9267 17.6912 60.1179 17.7549L60.8189 18.0417C61.0101 18.1373 61.265 18.1054 61.4243 17.9779L62.4758 16.9583C62.8582 16.6078 63.4955 16.6078 63.8779 16.9583L65.503 18.5196C65.8853 18.902 65.8853 19.5074 65.503 19.8898L64.4196 20.9095C64.2921 21.0688 64.2603 21.2918 64.324 21.4512L64.6108 22.1203C64.6745 22.3115 64.8657 22.4708 65.0887 22.4708H66.6182C67.1599 22.4708 67.606 22.9169 67.606 23.4268V25.6573C67.606 26.199 67.1599 26.6132 66.6182 26.6132H65.1843C64.9931 26.6451 64.802 26.7407 64.7064 26.9319L64.4196 27.601C64.324 27.7922 64.3558 28.0153 64.5152 28.1746L65.5667 29.1942C65.9491 29.5766 65.9491 30.1821 65.5667 30.5644L63.9416 32.1258C63.5592 32.4763 62.9219 32.4763 62.5396 32.1258L61.488 31.1061C61.3287 30.9787 61.1057 30.9468 60.9145 31.0105L60.2135 31.2973C60.0223 31.361 59.863 31.5522 59.863 31.7753V33.2092C59.8311 33.8146 59.385 34.2607 58.8114 34.2288ZM54.2548 30.3414C54.446 30.3414 54.6372 30.3732 54.7965 30.4688L55.4338 30.7237C55.9118 30.9149 56.2304 31.361 56.2623 31.8709V33.3048C56.2623 33.4322 56.3897 33.5597 56.5172 33.5597H58.8114C58.9389 33.5597 59.0663 33.4641 59.0663 33.3048V31.8709C59.0982 31.361 59.4168 30.9149 59.9267 30.7237L60.564 30.4688C61.0419 30.2776 61.5836 30.3732 61.966 30.6919L63.0175 31.7115C63.1131 31.8071 63.2725 31.8071 63.3681 31.7115L64.9931 30.1502C65.0569 30.1183 65.0569 30.0546 65.0569 29.9909C65.0569 29.9271 65.025 29.8634 64.9931 29.8315L63.9416 28.78C63.5911 28.4295 63.4955 27.8878 63.6867 27.4098L63.9416 26.7725C64.1328 26.2946 64.6108 25.9759 65.1525 25.9759H66.6501C66.7776 25.9759 66.905 25.8803 66.905 25.721V23.4905C66.905 23.363 66.7776 23.2356 66.6501 23.2356H65.1525C64.6108 23.2037 64.1647 22.8851 63.9735 22.4071L63.6548 21.7698C63.4636 21.3237 63.5274 20.782 63.8779 20.3996L64.9294 19.38C64.9931 19.3481 64.9931 19.2844 64.9931 19.2207C64.9931 19.1569 64.9613 19.0932 64.9294 19.0613L63.3043 17.4681C63.2087 17.3725 63.0494 17.3725 62.9538 17.4681L61.9341 18.4878C61.5518 18.8383 60.9782 18.902 60.5002 18.7108L59.863 18.4559C59.385 18.2647 59.0663 17.8186 59.0345 17.3088V15.8749C59.0345 15.7474 58.907 15.62 58.7796 15.62H56.4853C56.3579 15.62 56.2304 15.7156 56.2304 15.8749V17.3088C56.1985 17.8186 55.8799 18.2647 55.3701 18.4559L54.7328 18.7108C54.2548 18.902 53.7131 18.8064 53.3307 18.4878L52.2792 17.4681C52.1836 17.3725 52.0243 17.3725 51.9287 17.4681L50.3036 19.0613C50.208 19.1569 50.208 19.3162 50.3036 19.4118L51.3551 20.4315C51.7056 20.8139 51.8012 21.3556 51.5782 21.8017L51.3233 22.439C51.1321 22.9169 50.686 23.2356 50.1443 23.2356H48.6466C48.5192 23.2356 48.3917 23.3312 48.3917 23.4905V25.721C48.3917 25.8485 48.5192 25.9759 48.6466 25.9759H50.1443C50.686 26.0078 51.1321 26.3264 51.3233 26.8044L51.5782 27.4417C51.7694 27.8878 51.6738 28.4295 51.3233 28.8119L50.2717 29.8315C50.208 29.8634 50.208 29.9271 50.208 29.9909C50.208 30.0546 50.2399 30.1183 50.2717 30.1502L51.8968 31.7434C51.9924 31.839 52.1517 31.839 52.2473 31.7434L53.2989 30.7237C53.5856 30.437 53.9043 30.3095 54.2548 30.3414ZM57.6643 27.8559C55.7843 27.8559 54.2548 26.3902 54.2548 24.5739C54.2548 22.7576 55.7843 21.2918 57.6643 21.2918C59.5443 21.2918 61.0738 22.7576 61.0738 24.5739C61.0738 26.3902 59.5443 27.8559 57.6643 27.8559ZM57.6643 21.9929C56.1985 21.9929 55.0195 23.14 55.0195 24.5739C55.0195 26.0078 56.1985 27.1549 57.6643 27.1549C59.1301 27.1549 60.3091 26.0078 60.3091 24.5739C60.3091 23.14 59.1301 21.9929 57.6643 21.9929Z" fill="#47B39D" stroke="#47B39D"/>
<path d="M48.7958 48.3923H47.1655C46.7805 48.3923 46.4635 48.0653 46.4635 47.6917V46.6408C46.4409 46.5007 46.3503 46.3606 46.2145 46.3139L45.7163 46.1037C45.5804 46.0337 45.3993 46.057 45.2861 46.1504L44.5388 46.8977C44.2671 47.1546 43.8142 47.1546 43.5425 46.8977L42.3877 45.7301C42.116 45.4499 42.116 45.0062 42.3877 44.7259L43.1349 43.9787C43.2255 43.8619 43.2481 43.6984 43.2029 43.5817L42.9991 43.0913C42.9538 42.9512 42.8179 42.8578 42.6594 42.8344H41.5952C41.2102 42.8344 40.8932 42.5075 40.8932 42.1338V40.4992C40.8932 40.1022 41.2102 39.7986 41.5952 39.7986H42.6594C42.8179 39.7986 42.9311 39.6818 42.9991 39.5651L43.2029 39.0747C43.2708 38.9346 43.2481 38.7711 43.1349 38.6543L42.3877 37.8837C42.116 37.6035 42.116 37.1598 42.3877 36.8795L43.5425 35.7353C43.8142 35.4784 44.2671 35.4784 44.5388 35.7353L45.2861 36.4826C45.3993 36.576 45.5578 36.5993 45.6937 36.5526L46.1918 36.3424C46.3277 36.2957 46.4409 36.1556 46.4409 35.9922V34.9413C46.4409 34.5443 46.7579 34.2407 47.1428 34.2407H48.7732C49.1581 34.2407 49.4751 34.5677 49.4751 34.9413V35.9922C49.4978 36.1323 49.5883 36.2724 49.7242 36.3191L50.2224 36.5293C50.3582 36.5993 50.5394 36.576 50.6526 36.4826L51.3998 35.7353C51.6716 35.4784 52.1244 35.4784 52.3961 35.7353L53.551 36.8795C53.8227 37.1598 53.8227 37.6035 53.551 37.8837L52.7811 38.631C52.6905 38.7477 52.6679 38.9112 52.7132 39.028L52.9169 39.5184C52.9622 39.6585 53.0981 39.7752 53.2566 39.7752H54.3435C54.7284 39.7752 55.0454 40.1022 55.0454 40.4758V42.1105C55.0454 42.5075 54.7284 42.8111 54.3435 42.8111H53.3245C53.1887 42.8344 53.0528 42.9045 52.9849 43.0446L52.7811 43.535C52.7132 43.6751 52.7358 43.8386 52.849 43.9553L53.5963 44.7026C53.868 44.9828 53.868 45.4265 53.5963 45.7067L52.4414 46.851C52.1697 47.1079 51.7168 47.1079 51.4451 46.851L50.6979 46.1037C50.5847 46.0103 50.4262 45.987 50.2903 46.0337L49.7921 46.2439C49.6563 46.2906 49.5431 46.4307 49.5431 46.5941V47.645C49.5204 48.0887 49.2034 48.4156 48.7958 48.3923ZM45.5578 45.5433C45.6937 45.5433 45.8295 45.5666 45.9427 45.6367L46.3956 45.8235C46.7353 45.9636 46.9617 46.2906 46.9843 46.6642V47.7151C46.9843 47.8085 47.0749 47.9019 47.1655 47.9019H48.7958C48.8864 47.9019 48.977 47.8318 48.977 47.7151V46.6642C48.9996 46.2906 49.226 45.9636 49.5883 45.8235L50.0412 45.6367C50.3809 45.4966 50.7658 45.5666 51.0375 45.8002L51.7848 46.5474C51.8527 46.6175 51.9659 46.6175 52.0339 46.5474L53.1887 45.4032C53.234 45.3798 53.234 45.3331 53.234 45.2864C53.234 45.2397 53.2113 45.193 53.1887 45.1696L52.4414 44.399C52.1924 44.1421 52.1244 43.7451 52.2603 43.3949L52.4414 42.9278C52.5773 42.5775 52.917 42.344 53.3019 42.344H54.3661C54.4567 42.344 54.5473 42.2739 54.5473 42.1572V40.5225C54.5473 40.4291 54.4567 40.3357 54.3661 40.3357H53.3019C52.917 40.3123 52.5999 40.0788 52.4641 39.7285L52.2376 39.2615C52.1018 38.9346 52.1471 38.5376 52.3961 38.2573L53.1434 37.5101C53.1887 37.4867 53.1887 37.44 53.1887 37.3933C53.1887 37.3466 53.166 37.2999 53.1434 37.2765L51.9886 36.1089C51.9206 36.0389 51.8074 36.0389 51.7395 36.1089L51.0149 36.8562C50.7432 37.1131 50.3356 37.1598 49.9959 37.0197L49.5431 36.8328C49.2034 36.6927 48.977 36.3658 48.9543 35.9922V34.9413C48.9543 34.8479 48.8638 34.7545 48.7732 34.7545H47.1428C47.0523 34.7545 46.9617 34.8245 46.9617 34.9413V35.9922C46.939 36.3658 46.7126 36.6927 46.3503 36.8328L45.8974 37.0197C45.5578 37.1598 45.1729 37.0897 44.9011 36.8562L44.1539 36.1089C44.086 36.0389 43.9727 36.0389 43.9048 36.1089L42.75 37.2765C42.6821 37.3466 42.6821 37.4634 42.75 37.5334L43.4972 38.2807C43.7463 38.5609 43.8142 38.9579 43.6557 39.2848L43.4746 39.7519C43.3387 40.1022 43.0217 40.3357 42.6368 40.3357H41.5725C41.482 40.3357 41.3914 40.4058 41.3914 40.5225V42.1572C41.3914 42.2506 41.482 42.344 41.5725 42.344H42.6368C43.0217 42.3674 43.3387 42.6009 43.4746 42.9512L43.6557 43.4182C43.7916 43.7451 43.7237 44.1421 43.4746 44.4224L42.7273 45.1696C42.6821 45.193 42.6821 45.2397 42.6821 45.2864C42.6821 45.3331 42.7047 45.3798 42.7273 45.4032L43.8822 46.5708C43.9501 46.6408 44.0633 46.6408 44.1312 46.5708L44.8785 45.8235C45.0823 45.6133 45.3087 45.5199 45.5578 45.5433ZM47.9807 43.7218C46.6447 43.7218 45.5578 42.6476 45.5578 41.3165C45.5578 39.9854 46.6447 38.9112 47.9807 38.9112C49.3166 38.9112 50.4035 39.9854 50.4035 41.3165C50.4035 42.6476 49.3166 43.7218 47.9807 43.7218ZM47.9807 39.425C46.939 39.425 46.1012 40.2656 46.1012 41.3165C46.1012 42.3674 46.939 43.208 47.9807 43.208C49.0223 43.208 49.8601 42.3674 49.8601 41.3165C49.8601 40.2656 49.0223 39.425 47.9807 39.425Z" fill="#47B39D" stroke="#47B39D"/>
</svg>
