<svg width="82" height="83" viewBox="0 0 82 83" fill="none" xmlns="http://www.w3.org/2000/svg">
<path d="M41.5666 12.5665C28.0063 12.5665 13.6637 10.7253 13.6637 7.28323C13.6637 3.84113 28.0063 2 41.5666 2C55.1269 2 69.4696 3.84113 69.4696 7.28323C69.3392 10.7253 54.9966 12.5665 41.5666 12.5665ZM41.5666 3.20073C34.3953 3.20073 27.7455 3.68103 22.7908 4.56157C17.5753 5.52216 15.6195 6.56279 15.6195 7.28323C15.6195 8.96426 25.3985 11.3657 41.4362 11.3657C48.4772 11.3657 55.1269 10.8854 60.2121 10.0049C65.4276 9.12436 67.3834 8.00367 67.3834 7.28323C67.3834 5.6022 57.6043 3.20073 41.5666 3.20073Z" fill="#47B39D" stroke="#47B39D"/>
<path d="M41.5666 22.5724C28.0063 22.5724 13.6637 20.7313 13.6637 17.2892V10.0847C13.6637 9.76453 14.0548 9.44434 14.7068 9.44434C15.3587 9.44434 15.6195 9.68448 15.6195 10.0047V17.2091C15.6195 18.8902 25.3985 21.2916 41.4362 21.2916C48.4772 21.2916 55.1269 20.8113 60.2121 19.9308C65.4276 19.0502 67.3834 17.9296 67.3834 17.2091V10.0847C67.3834 9.76453 67.7746 9.44434 68.4265 9.44434C69.0784 9.44434 69.4696 9.68448 69.4696 10.0847V17.2091C69.3392 20.7313 54.9966 22.5724 41.5666 22.5724Z" fill="#47B39D" stroke="#47B39D"/>
<path d="M41.5666 32.4987C28.0063 32.4987 13.6637 30.6575 13.6637 27.2154V20.011C13.6637 19.6908 14.0548 19.3706 14.7068 19.3706C15.3587 19.3706 15.7499 19.6108 15.7499 20.011V27.2154C15.7499 28.8964 25.5289 31.2979 41.5666 31.2979C48.6076 31.2979 55.2573 30.8176 60.3425 29.9371C65.558 29.0565 67.5138 27.9359 67.5138 27.2154V20.091C67.5138 19.7709 67.905 19.4507 68.5569 19.4507C69.2088 19.4507 69.6 19.6908 69.6 20.091V27.2154C69.3392 30.6575 54.9966 32.4987 41.5666 32.4987Z" fill="#47B39D" stroke="#47B39D"/>
<path d="M41.5666 42.6647C28.0063 42.6647 13.6637 40.8236 13.6637 37.3815V30.177C13.6637 29.8568 14.0548 29.5366 14.7068 29.5366C15.3587 29.5366 15.7499 29.7768 15.7499 30.177V37.3815C15.7499 39.0625 25.5289 41.464 41.5666 41.464C48.6076 41.464 55.2573 40.9837 60.3425 40.1031C65.558 39.2226 67.5138 38.1019 67.5138 37.3815V30.2571C67.5138 29.9369 67.905 29.6167 68.5569 29.6167C69.2088 29.6167 69.6 29.8568 69.6 30.2571V37.3815C69.3392 40.8236 54.9966 42.6647 41.5666 42.6647Z" fill="#47B39D" stroke="#47B39D"/>
<path d="M18.4 69.7335C15.4 69.7335 13 67.3535 13 64.3785C13 61.4035 15.4 59.0234 18.4 59.0234C21.4 59.0234 23.8 61.4035 23.8 64.3785C23.8 67.3535 21.4 69.7335 18.4 69.7335ZM18.4 60.5109C16.3 60.5109 14.5 62.1968 14.5 64.3785C14.5 66.461 16.2 68.246 18.4 68.246C20.6 68.246 22.3 66.5602 22.3 64.3785C22.3 62.296 20.5 60.5109 18.4 60.5109Z" fill="#47B39D" stroke="#47B39D"/>
<path d="M41.5818 81.3341C38.5818 81.3341 36.1818 78.9541 36.1818 75.9791C36.1818 73.004 38.5818 70.624 41.5818 70.624C44.5818 70.624 46.9818 73.004 46.9818 75.9791C46.9818 78.9541 44.5818 81.3341 41.5818 81.3341ZM41.5818 72.1115C39.4818 72.1115 37.6818 73.7974 37.6818 75.9791C37.6818 78.1607 39.3818 79.8466 41.5818 79.8466C43.7818 79.8466 45.4818 78.1607 45.4818 75.9791C45.4818 73.7974 43.7818 72.1115 41.5818 72.1115Z" fill="#47B39D" stroke="#47B39D"/>
<path d="M64.2 72.8077C61.2 72.8077 58.8 70.4277 58.8 67.4527C58.8 64.4777 61.2 62.0977 64.2 62.0977C67.2 62.0977 69.6 64.4777 69.6 67.4527C69.6 70.4277 67.2 72.8077 64.2 72.8077ZM64.2 63.5852C62.1 63.5852 60.3 65.271 60.3 67.4527C60.3 69.6344 62 71.3202 64.2 71.3202C66.3 71.3202 68.1 69.6344 68.1 67.4527C68.1 65.271 66.3 63.5852 64.2 63.5852Z" fill="#47B39D" stroke="#47B39D"/>
<path d="M41.5818 72.1114C41.1818 72.1114 40.7818 71.8489 40.7818 71.4115V52.1643C40.7818 51.8143 41.0818 51.4644 41.5818 51.4644C41.9818 51.4644 42.3818 51.7268 42.3818 52.1643V71.499C42.3818 71.8489 42.0818 72.1114 41.5818 72.1114Z" fill="#47B39D" stroke="#47B39D"/>
<path d="M33.6 65.1717H23C22.6 65.1717 22.2 64.8742 22.2 64.3783C22.2 63.9816 22.5 63.585 23 63.585H33.5C33.9 63.585 34.3 63.8825 34.3 64.3783C34.3 64.775 34 65.1717 33.6 65.1717Z" fill="#47B39D" stroke="#47B39D"/>
<path d="M33.6 65.172C33.2 65.172 32.8 64.9089 32.8 64.4704V51.4921C32.8 51.1413 33.1 50.7905 33.6 50.7905C34.1 50.7905 34.4 51.0536 34.4 51.4921V64.4704C34.3 64.8212 34 65.172 33.6 65.172Z" fill="#47B39D" stroke="#47B39D"/>
<path d="M59.6 68.1468H51C50.6 68.1468 50.2 67.8493 50.2 67.3534C50.2 66.9567 50.5 66.5601 51 66.5601H59.6C60 66.5601 60.4 66.8576 60.4 67.3534C60.3 67.8493 60 68.1468 59.6 68.1468Z" fill="#47B39D" stroke="#47B39D"/>
<path d="M50.9 68.1469C50.5 68.1469 50.1 67.8614 50.1 67.3856V50.9234C50.1 50.5427 50.4 50.1621 50.9 50.1621C51.4 50.1621 51.7 50.4476 51.7 50.9234V67.4807C51.7 67.8614 51.3 68.1469 50.9 68.1469Z" fill="#47B39D" stroke="#47B39D"/>
<path d="M57.8818 50.7903H43.3818C42.9818 50.7903 42.5818 50.4928 42.5818 49.997C42.5818 49.5011 42.8818 49.2036 43.3818 49.2036H57.8818C58.2818 49.2036 58.6818 49.5011 58.6818 49.997C58.6818 50.4928 58.2818 50.7903 57.8818 50.7903Z" fill="#47B39D" stroke="#47B39D"/>
<path d="M39.6818 50.7903H25.0818C24.6818 50.7903 24.2818 50.4928 24.2818 49.997C24.2818 49.5011 24.5818 49.2036 25.0818 49.2036H39.6818C40.0818 49.2036 40.4818 49.5011 40.4818 49.997C40.4818 50.4928 40.1818 50.7903 39.6818 50.7903Z" fill="#47B39D" stroke="#47B39D"/>
<path d="M41.5818 49.4538C41.1818 49.4538 40.7818 49.1231 40.7818 48.5719V43.0601C40.7818 42.6192 41.0818 42.1782 41.5818 42.1782C42.0818 42.1782 42.3818 42.5089 42.3818 43.0601V48.5719C42.2818 49.1231 41.9818 49.4538 41.5818 49.4538Z" fill="#47B39D" stroke="#47B39D"/>
<path d="M45.3216 47.877H37.742V51.998H45.3216V47.877Z" fill="#47B39D" stroke="#47B39D"/>
</svg>
